<svg version="1.1" id="Logo" xmlns="http://www.w3.org/2000/svg" x="0" y="0" viewBox="0 0 1000 1000" xml:space="preserve"><style>.st0,.st3{fill:#474b4c}.st3{display:none}.st7{fill:#15d1ea}</style><g id="Capacete_1_"><path class="st0" d="M633.9 123.8H366.1c-49.6 26.7-90.2 67.8-116.4 117.6v263.2c11.1 21 24.8 40.4 40.6 57.8v30.3c0 12.7 10.2 22.9 22.9 22.9h368.7c12.7 0 22.9-10.2 22.9-22.9v-24.6c18-18.9 33.5-40.2 45.7-63.5V241.3c-26.3-49.8-67-90.9-116.6-117.5z"/><path d="M592.5 123.8h-68.6c-49.6 26.7-90.2 67.8-116.4 117.6v263.2c11.1 21 24.8 40.4 40.6 57.8v30.3c0 12.7 10.2 22.9 22.9 22.9h24.5v-59.7c-30.7-25.8-49.8-63.1-49.8-63.1V249.7c35.1-66.1 102.4-105.8 146.8-125.9z" fill="#494b4c"/><path class="st0" d="M776.9 227.7h-15.8c-27.9-50.1-69-90.9-119.5-118.1l-1.1-.6V97.3c0-25.8-21-46.8-46.8-46.8H396.8c-25.8 0-46.8 21-46.8 46.8v17.2c-46.6 27.1-84.8 66-111.1 113.2h-15.8c-25.8 0-46.8 21-46.8 46.8v196.8c0 25.8 21 46.8 46.8 46.8h15.7c9.9 17.7 21.6 34.6 35.3 50.3v24.2c0 21.5 17.5 38.9 38.9 38.9h368.7c21.5 0 38.9-17.5 38.9-38.9v-18.3c15.7-17.2 29.1-36.1 40.4-56.2h15.7c25.8 0 46.8-21 46.8-46.8V274.6c.3-25.9-20.8-46.9-46.6-46.9zM693.1 557l-4.5 4.6v31.1c0 3.8-3.1 6.8-6.9 6.8H313.1c-3.8 0-6.8-3.1-6.8-6.8v-36.5l-4.1-4.6c-14.3-15.8-26.6-33-36.5-51.2V245.3c24.2-44.5 60.3-80.9 104.5-105.6h259.7c44.2 24.7 80.2 61 104.5 105.6v255.2C723.2 521 709.3 540 693.1 557z"/><circle transform="rotate(-45.001 499.983 372.94)" class="st0" cx="500" cy="372.9" r="177.1"/><circle transform="rotate(-45.001 499.984 372.94)" class="st3" cx="500" cy="372.9" r="134.1"/><path class="st3" d="M924.1 887.9c-4.6-33.5-22-96.3-85.5-142.9-15.1-11.1-31.8-19.7-49.2-26.7-18.6-7.6-46.4-17.7-72.8-23.2v-12.5c0-13.7-11.1-24.9-24.9-24.9H308.3c-13.7 0-24.9 11.1-24.9 24.9v12.5c-30.5 6.5-58.3 16.9-76.7 24.8-17.2 7.4-33.8 16.4-48.7 27.7C97.3 793.9 80.5 855 75.9 887.9c-1 6.9-.5 14.1 2 20.6C84.2 924.3 99.1 934 115 934h769.9c16 0 30.9-9.6 37.1-25.4 2.6-6.6 3.1-13.8 2.1-20.7zM315.5 722.3v-32.5h368.9v32.5l13.6 2.2c5.3.8 10.4 1.8 15.5 2.8 1 .2 1.8.4 2.7.6 4.4.9 8.7 1.8 13 2.9.5.1 1 .3 1.5.4 9.9 2.5 19.5 5.3 28.6 8.6-58.9 60.6-157.2 97.6-262.7 97.6-104.2 0-201.9-36.3-261-95.9 9.7-3.6 20-6.9 30.7-9.6.7-.2 1.5-.4 2.2-.6 4.4-1.1 8.8-2.1 13.4-3.1 1.1-.3 2.3-.5 3.4-.8 5.4-1.1 10.8-2.1 16.4-3l13.8-2.1zm575.1 176.9c-.8 1-2.7 2.6-5.7 2.6H115.1c-3 0-4.9-1.6-5.7-2.6-.8-1-2.2-2.9-1.8-5.7 5.1-39 25.3-99.5 97.3-138.1 64.2 70.6 174.5 114.2 291.9 114.2 118.9 0 230-44.4 294-116.4 75.6 38.5 96.5 100.7 101.7 140.4.3 2.6-1 4.6-1.9 5.6z"/><circle transform="rotate(-22.5 499.976 763.528)" class="st3" cx="500" cy="763.6" r="16"/><circle transform="rotate(-22.5 499.976 763.528)" class="st3" cx="500" cy="763.6" r="16"/></g><g id="Logo_React"><circle transform="matrix(.9979 -.06407 .06407 .9979 -22.751 32.799)" class="st7" cx="500" cy="371.1" r="27.5"/><path class="st7" d="M500 308.6c-84.6 0-153.2 28-153.2 62.5s68.6 62.5 153.2 62.5 153.2-28 153.2-62.5c0-34.6-68.6-62.5-153.2-62.5zm103.5 94.9c-27.4 11.2-64.2 17.4-103.5 17.4s-76.1-6.2-103.5-17.4c-23.2-9.4-37-21.5-37-32.4 0-10.8 13.8-23 37-32.4 27.4-11.2 64.2-17.4 103.5-17.4s76.1 6.2 103.5 17.4c23.2 9.4 37 21.5 37 32.4 0 10.8-13.8 22.9-37 32.4z"/><path class="st7" d="M445.9 339.8c-42.3 73.3-52.4 146.7-22.5 164 29.9 17.2 88.4-28.2 130.8-101.5s52.4-146.7 22.5-164c-30-17.2-88.5 28.2-130.8 101.5zm133.9-42.2c-4 29.4-17.1 64.3-36.7 98.4s-43.4 62.8-66.8 81c-19.7 15.3-37.1 21.3-46.5 15.8-9.4-5.4-13-23.4-9.5-48.2 4-29.4 17.1-64.3 36.7-98.4s43.4-62.8 66.8-81c19.7-15.3 37.1-21.3 46.5-15.8 9.4 5.4 12.9 23.4 9.5 48.2z"/><path class="st7" d="M423.4 238.3c-29.9 17.2-19.8 90.7 22.5 164S546.8 521 576.7 503.8c29.9-17.2 19.8-90.7-22.5-164-42.4-73.3-100.9-118.7-130.8-101.5zm6.4 11.1c9.4-5.4 26.8.5 46.5 15.8 23.4 18.2 47.2 47 66.8 81s32.7 69 36.7 98.4c3.4 24.8-.2 42.8-9.5 48.2-9.4 5.4-26.8-.5-46.5-15.8-23.4-18.2-47.2-47-66.8-81-19.7-34-32.7-69-36.7-98.4-3.5-24.8 0-42.8 9.5-48.2z"/></g><g id="Texto"><path class="st7" d="M310.6 945c.6 1 .5 2-.1 3.1-.6 1-1.5 1.5-2.5 1.5h-28.1c-1.3 0-2.2-.6-2.7-1.7l-34.1-66.2h-1l-.1 64.6c0 2-1 3.1-3.1 3.1h-27.6c-2 0-3.1-1-3.1-3.1V879c-.1-.4-.1-.6-.1-.4v-2.7c-3.1-4.3-7.3-7.3-12.8-9-.4-.1-.7-.4-.7-1s.3-.8.7-1c5.4-1.7 9.7-4.7 12.8-9v-70.3c0-1 .3-1.7 1-2.4.6-.6 1.3-1 2.2-1h52.9c13.7 0 23.3 3.2 28.6 9.8 4.5 5.3 6.9 14.4 7.2 27.2.1 1.3.1 9.7 0 25.3v3.9c0 8.1-2.2 14.8-6.7 20.4-4 5-9.4 8.5-16.2 10.6l33.5 65.6zm-44.1-124.6c0-2.5-.4-4.3-1.4-5.3-1.1-1.2-3.2-1.8-6.3-1.8H242v38.4h16.7c2.8 0 4.8-.6 5.9-1.7 1.1-1.1 1.7-3.1 1.7-5.6l.2-24zm165.8 126c0 2.1-1 3.1-3.1 3.1h-76.9c-2.1 0-3.1-1-3.1-3.1v-68.2c-2.9-4.3-7.3-7.4-12.9-9.2-.4-.1-.7-.4-.7-.8 0-.6.3-.9.7-1 5.6-1.7 9.9-4.7 12.9-9.1v-72.3c0-2 1-3.1 3.1-3.1H426c2.1 0 3.1 1 3.1 3.1v24.1c0 2-1 3.1-3.1 3.1h-43.1v39.8h41.7c2 0 3.1 1 3.1 3.1V880c0 2-1 3.1-3.1 3.1h-41.7v36.4h46.3c2 0 3.1 1 3.1 3.1v23.8zm133-48.6c.4.1.7.4.7 1s-.3.8-.7 1c-3.4 1.1-6.8 3.1-10.1 6l7.3 40.3c.3 1 .1 1.7-.6 2.4-.6.8-1.5 1.1-2.4 1.1h-26.8c-1.8 0-2.8-.9-3.1-2.7l-4.5-33h-24.9l-4.5 33c-.3 1.8-1.3 2.7-3.1 2.7h-26.8c-1 0-1.7-.4-2.4-1.1-.6-.7-.8-1.5-.7-2.4l7.3-39.7c-3.2-3.2-6.9-5.5-10.9-6.7-.4-.1-.7-.3-.7-.8 0-.6.3-.8.7-1 7-2.2 11.6-5.9 14.1-11.1 0-.1.1-.3.3-.3l.3-.1 18.6-101.1c.3-1.7 1.3-2.5 3.1-2.5h34.4c1.7 0 2.7.8 3.1 2.5l18.8 102.6c2.8 4.7 4.2 7.1 4.2 7.1s3.1.8 9.3 2.8zm-45.1-14.2l-7.6-47.6-7.4 47.6h15zM656.9 828c0-5-.9-8.8-2.7-11.6-1.7-2.8-4.1-4.2-7.3-4.2-4 0-6.8.9-8.4 2.7-1.9 2-2.9 5.9-2.9 11.6v34c2.4 4.2 6.6 7.3 12.9 9.2.4.1.7.4.7 1 0 .5-.3.8-.7 1-6.5 1.9-10.8 4.8-12.9 8.7v25.5c0 5.7 1 9.7 2.9 11.8 1.5 1.7 4.3 2.5 8.4 2.5 3.5 0 6-.8 7.4-2.4 1.7-1.9 2.5-5.4 2.5-10.5v-14.4c0-1.9 1-2.9 3.1-2.9h26.9c2 0 3.1 1 3.1 2.9v13.6c0 13-3.9 23.5-11.8 31.3-7.8 7.8-18.1 11.8-31.2 11.8-13.6 0-24.3-3.8-32.3-11.5-7.9-7.8-11.9-18.3-11.9-31.6v-26.1c-2.9-4.3-7.1-7.3-12.6-9-.4-.1-.7-.4-.7-.8 0-.6.3-.8.7-1 5.4-1.7 9.6-4.7 12.6-9v-34.9c0-13.2 3.9-23.7 11.9-31.4 7.9-7.8 18.6-11.6 32.3-11.6 13 0 23.4 4.2 31.2 12.6 7.8 8.3 11.8 19.4 11.8 33.4v7c0 2-1 3.1-3.1 3.1h-26.9c-2 0-3.1-1-3.1-3.1V828zm145.3-44.9c2 0 3.1 1 3.1 3.1v23.9c0 2.1-1 3.1-3.1 3.1h-23.6v43.5c3.1 4.1 7.3 7 12.7 8.6.4.1.7.4.7 1s-.3.8-.7 1c-5.3 1.7-9.5 4.5-12.7 8.7v70.5c0 2-1 3.1-3.1 3.1H748c-2 0-3.1-1-3.1-3.1v-69.6c-2.9-4.6-7.3-7.8-13.2-9.5-.4-.1-.6-.4-.6-1s.2-.8.6-1c5.9-1.8 10.3-5 13.2-9.7v-42.5h-23.5c-2.1 0-3.1-1-3.1-3.1v-23.9c0-2.1 1-3.1 3.1-3.1h80.8z"/><path d="M298 743.4v-56.7h15.4v56.7H298zm60.3 0l-11.6-40.9h-.3c.6 6.9.8 12.3.8 16.2v24.6h-13.6v-56.7H354l11.8 40.3h.3l11.6-40.3h20.4v56.7H384v-24.9c0-1.3 0-2.7.1-4.3s.2-5.5.5-11.6h-.3L373 743.4h-14.7zm93.7 0h-33.7v-56.7H452V699h-18.3v8.9h17v12.3h-17v10.7H452v12.5zm33.2-20.6v20.6h-15.3v-56.7h18.6c15.4 0 23.1 5.6 23.1 16.7 0 6.6-3.2 11.6-9.6 15.3l16.5 24.7h-17.4l-12-20.6h-3.9zm0-11.5h2.9c5.3 0 8-2.4 8-7.1 0-3.9-2.6-5.9-7.9-5.9h-3.1l.1 13zm83.5 14.9c0 3.5-.9 6.6-2.7 9.4-1.8 2.7-4.3 4.8-7.7 6.4-3.4 1.5-7.3 2.3-11.8 2.3-3.8 0-6.9-.3-9.5-.8s-5.2-1.5-8-2.8V727c2.9 1.5 6 2.7 9.1 3.5 3.2.8 6 1.3 8.7 1.3 2.3 0 3.9-.4 5-1.2 1.1-.8 1.6-1.8 1.6-3.1 0-.8-.2-1.5-.6-2-.4-.6-1.1-1.1-2-1.8-1-.6-3.4-1.8-7.6-3.6-3.7-1.7-6.5-3.3-8.3-4.9-1.8-1.6-3.2-3.4-4.1-5.4-.9-2-1.3-4.5-1.3-7.3 0-5.2 1.9-9.3 5.7-12.2s9-4.4 15.7-4.4c5.9 0 11.8 1.3 17.9 4.1l-4.7 11.8c-5.3-2.4-9.9-3.6-13.7-3.6-2 0-3.4.3-4.3 1-.9.7-1.3 1.6-1.3 2.6 0 1.1.6 2.1 1.7 3 1.1.9 4.3 2.5 9.4 4.8 4.9 2.2 8.3 4.6 10.2 7.1 1.6 2.5 2.6 5.6 2.6 9.5zm51.4 17.2l-2.8-10.6h-18.5l-2.9 10.6H579l18.5-56.9h20.4l18.7 56.9h-16.5zm-4.9-61.2c-1.1 0-2.4-.2-3.5-.6-1.1-.4-2.4-.8-3.5-1.3s-2.2-.9-3.3-1.3c-1.1-.4-2.1-.6-3.1-.6-1.4 0-2.4 1.3-2.8 3.8h-7c.3-4.5 1.2-7.9 2.8-10.1s3.9-3.2 7-3.2c1 0 2 .2 3.1.6s2.2.8 3.4 1.3 2.3.9 3.4 1.3 2.2.6 3.1.6c.8 0 1.3-.3 1.8-1 .4-.6.8-1.6 1-2.9h7.1c-.3 4.3-1.3 7.6-2.9 9.9-1.6 2.4-3.8 3.5-6.6 3.5zm-1 38l-2.4-9.3c-.6-2.1-1.3-4.8-2.1-8s-1.3-5.7-1.6-7.1c-.3 1.3-.7 3.5-1.4 6.5-.7 3.1-2.2 9-4.6 17.9h12.1zm89.9-5.3c0 9.5-2.4 16.8-7 21.8-4.7 5-11.5 7.4-20.6 7.4-8.9 0-15.7-2.5-20.5-7.5-4.8-5-7.1-12.3-7.1-21.8 0-9.4 2.4-16.7 7.1-21.6 4.7-5 11.6-7.4 20.6-7.4 9 0 15.8 2.5 20.5 7.4 4.6 4.9 7 12.2 7 21.7zm-39 0c0 10.9 3.8 16.4 11.5 16.4 3.9 0 6.7-1.3 8.7-4 1.9-2.7 2.8-6.8 2.8-12.5s-1-9.9-2.9-12.5c-1.9-2.7-4.7-4.1-8.5-4.1-7.8.1-11.6 5.7-11.6 16.7z" fill="#4f5354"/></g></svg>